#!OML:ASF G:\JayActor3\Patient Classification 1\Patient 1\Session 2\male.ASF
:FULLY-SPECIFIED
:DEGREES
1000
root -23.1462 14.662 -4.7453 1076.25 47.9252 -2.62041
lowerback 9.39617 -2.61617 -5.89301
upperback 1.13066 -4.03781 0.588352
thorax -3.63164 -1.91187 4.40823
lowerneck -12.1182 7.55716 5.6539
upperneck 2.86889 9.09581 2.30692
head 3.21709 4.69902 0.38293
rclavicle 7.36e-014 -5.56597e-015
rhumerus 32.6567 4.2635 -12.6401
rradius 57.1749
rwrist -10.1246
rhand -16.6065 6.83358
rfingers 7.12502
rthumb 9.61502 -22.927
lclavicle 7.36e-014 -5.56597e-015
lhumerus 41.8956 -16.4932 32.3075
lradius 88.7772
lwrist 27.2697
lhand -15.3281 17.0147
lfingers 7.12502
lthumb 10.8483 46.7145
rfemur -50.043 -18.816 36.6572
rtibia 35.5645
rfoot -26.2949 -7.92205
rtoes -1.46601
lfemur -0.867788 22.7385 -29.3487
ltibia 66.6957
lfoot -16.6949 0.467194
ltoes 19.1882
1001
root -23.0859 14.6698 -4.83907 1076.35 46.8561 -2.61068
lowerback 10.8759 -2.24317 -5.74625
upperback 1.87324 -3.59775 0.177145
thorax -3.76174 -1.70119 3.90626
lowerneck -11.7131 7.59842 5.53273
upperneck 1.84 9.23851 2.36062
head 2.77338 4.75161 0.380438
rclavicle -5.38706e-014 -1.82882e-014
rhumerus 31.8823 3.08355 -14.7366
rradius 58.1291
rwrist -10.6033
rhand -16.9823 6.88388
rfingers 7.12502
rthumb 9.25246 -22.8931
lclavicle -5.38706e-014 -1.82882e-014
lhumerus 42.4403 -17.2071 31.6248
lradius 86.7926
lwrist 27.4479
lhand -14.8872 17.029
lfingers 7.12502
lthumb 11.2735 46.706
rfemur -49.9536 -18.7748 36.9491
rtibia 35.1599
rfoot -26.2373 -7.23876
rtoes -1.93475
lfemur -4.46185 22.4272 -29.2799
ltibia 71.0641
lfoot -17.5905 0.770068
ltoes 19.1303
1002
root -23.0288 14.6838 -4.93305 1076.36 45.9541 -2.74975
lowerback 12.3484 -1.91918 -5.53493
upperback 2.60962 -3.21021 -0.250665
thorax -3.87822 -1.51486 3.34136
lowerneck -11.2972 7.65362 5.37939
upperneck 0.895775 9.40542 2.37209
head 2.36467 4.81631 0.372495
rclavicle -8.17005e-014 9.54166e-015
rhumerus 31.0596 2.14929 -16.5178
rradius 59.0694
rwrist -11.0147
rhand -17.3991 6.93315
rfingers 7.12502
rthumb 8.85026 -22.8613
lclavicle -8.17005e-014 9.54166e-015
lhumerus 43.0169 -17.7597 31.0384
lradius 84.9013
lwrist 27.4747
lhand -14.8633 16.9883
lfingers 7.12502
lthumb 11.2966 46.6641
rfemur -49.7367 -18.5661 37.1563
rtibia 34.575
rfoot -26.2631 -6.54115
rtoes -2.12917
lfemur -8.12884 21.7256 -29.0183
ltibia 75.1605
lfoot -18.4959 1.085
ltoes 19.3877
1003
root -22.9748 14.7033 -5.02557 1076.38 45.2625 -2.96573
lowerback 13.7646 -1.66906 -5.28993
upperback 3.32682 -2.90835 -0.708297
thorax -3.96333 -1.36882 2.72283
lowerneck -10.9039 7.71566 5.20561
upperneck 0.0446815 9.57948 2.37585
head 1.99695 4.88697 0.36859
rclavicle -5.64548e-014 4.85035e-014
rhumerus 30.2146 1.4559 -17.9916
rradius 59.8882
rwrist -11.3808
rhand -17.8878 7.02087
rfingers 7.12502
rthumb 8.37862 -22.7929
lclavicle -5.64548e-014 4.85035e-014
lhumerus 43.5676 -18.1336 30.5106
lradius 83.2543
lwrist 27.344
lhand -15.2363 16.9085
lfingers 7.12502
lthumb 10.9368 46.6037
rfemur -49.4883 -18.2952 37.2775
rtibia 33.8614
rfoot -26.384 -5.97133
rtoes -2.14458
lfemur -11.8686 20.5985 -28.5903
ltibia 78.9134
lfoot -19.2837 1.36423
ltoes 19.6955
1004
root -22.9234 14.7265 -5.1143 1076.49 44.7935 -3.16853
lowerback 15.1043 -1.48651 -5.09591
upperback 4.00827 -2.69464 -1.18449
thorax -4.02048 -1.26299 2.11443
lowerneck -10.5677 7.76418 5.02675
upperneck -0.709899 9.72836 2.36225
head 1.67696 4.94763 0.363157
rclavicle -2.44505e-014 2.8625e-014
rhumerus 29.3513 0.98205 -19.1477
rradius 60.5209
rwrist -11.7335
rhand -18.4463 7.15509
rfingers 7.12502
rthumb 7.83957 -22.6796
lclavicle -2.44505e-014 2.8625e-014
lhumerus 44.0359 -18.3383 30.0655
lradius 81.9835
lwrist 27.0838
lhand -15.8486 16.8087
lfingers 7.12502
lthumb 10.3462 46.5342
rfemur -49.3138 -18.1228 37.3451
rtibia 33.0941
rfoot -26.5779 -5.59681
rtoes -2.15662
lfemur -15.6495 19.0559 -28.0307
ltibia 82.247
lfoot -19.921 1.49174
ltoes 20.392
1005
root -22.8738 14.7513 -5.19842 1076.77 44.5507 -3.28793
lowerback 16.3482 -1.3682 -5.03539
upperback 4.63562 -2.57806 -1.64297
thorax -4.05614 -1.20156 1.60628
lowerneck -10.2675 7.79067 4.81294
upperneck -1.41191 9.84667 2.32543
head 1.38362 4.99456 0.356977
rclavicle 3.4191e-014 1.59028e-014
rhumerus 28.5131 0.705367 -19.9902
rradius 60.946
rwrist -12.0984
rhand -19.0303 7.31542
rfingers 7.12502
rthumb 7.27595 -22.5395
lclavicle 3.4191e-014 1.59028e-014
lhumerus 44.3343 -18.37 29.7754
lradius 81.1734
lwrist 26.7612
lhand -16.5266 16.7207
lfingers 7.12502
lthumb 9.69211 46.4777
rfemur -49.2953 -18.0976 37.3454
rtibia 32.3451
rfoot -26.8714 -5.4592
rtoes -2.07163
lfemur -19.4527 17.1232 -27.3812
ltibia 85.096
lfoot -20.426 1.48538
ltoes 21.4711
1006
root -22.824 14.7758 -5.27924 1077.23 44.4881 -3.2833
lowerback 17.5167 -1.28556 -5.1244
upperback 5.20585 -2.52879 -2.0727
thorax -4.0892 -1.17031 1.21817
lowerneck -9.9939 7.78115 4.5962
upperneck -2.11257 9.91402 2.235
head 1.10109 5.01621 0.333423
rclavicle -8.34896e-015 -6.36111e-015
rhumerus 27.6698 0.559985 -20.5729
rradius 61.1814
rwrist -12.4557
rhand -19.5934 7.5036
rfingers 7.12502
rthumb 6.73234 -22.3694
lclavicle -8.34896e-015 -6.36111e-015
lhumerus 44.4659 -18.2517 29.667
lradius 80.8417
lwrist 26.4773
lhand -17.0943 16.6346
lfingers 7.12502
lthumb 9.14439 46.4163
rfemur -49.4626 -18.2586 37.2914
rtibia 31.664
rfoot -27.2363 -5.52081
rtoes -1.886
lfemur -23.2395 14.8656 -26.657
ltibia 87.415
lfoot -20.842 1.46746
ltoes 22.6513
